<svg xmlns="http://www.w3.org/2000/svg" xmlns:xlink="http://www.w3.org/1999/xlink" width="500" zoomAndPan="magnify" viewBox="0 0 375 374.999991" height="500" preserveAspectRatio="xMidYMid meet" version="1.0"><defs><g/><clipPath id="7cf71b984a"><path d="M 320 13.5 L 361.5 13.5 L 361.5 21 L 320 21 Z M 320 13.5 " clip-rule="nonzero"/></clipPath><clipPath id="15ea04c729"><path d="M 13.5 13.5 L 55 13.5 L 55 21 L 13.5 21 Z M 13.5 13.5 " clip-rule="nonzero"/></clipPath><clipPath id="64e79bb82f"><path d="M 354 13.5 L 361.5 13.5 L 361.5 361.5 L 354 361.5 Z M 354 13.5 " clip-rule="nonzero"/></clipPath><clipPath id="e72a8a3ade"><path d="M 13.5 13.5 L 21 13.5 L 21 361.5 L 13.5 361.5 Z M 13.5 13.5 " clip-rule="nonzero"/></clipPath><clipPath id="eae8ac10b7"><path d="M 320 354 L 361.5 354 L 361.5 361.5 L 320 361.5 Z M 320 354 " clip-rule="nonzero"/></clipPath><clipPath id="ddc526a199"><path d="M 13.5 354 L 55 354 L 55 361.5 L 13.5 361.5 Z M 13.5 354 " clip-rule="nonzero"/></clipPath></defs><rect x="-37.5" width="450" fill="#ffffff" y="-37.499999" height="449.999989" fill-opacity="1"/><rect x="-37.5" width="450" fill="#ffffff" y="-37.499999" height="449.999989" fill-opacity="1"/><g clip-path="url(#7cf71b984a)"><path fill="#121212" d="M 323.898438 13.539062 L 357.984375 13.542969 C 359.960938 13.542969 361.566406 15.144531 361.566406 17.121094 C 361.566406 19.101562 359.960938 20.703125 357.984375 20.703125 L 323.898438 20.703125 C 321.921875 20.703125 320.316406 19.097656 320.316406 17.121094 C 320.316406 15.144531 321.921875 13.539062 323.898438 13.539062 Z M 323.898438 13.539062 " fill-opacity="1" fill-rule="nonzero"/></g><g clip-path="url(#15ea04c729)"><path fill="#121212" d="M 51.207031 13.539062 L 17.121094 13.542969 C 15.144531 13.542969 13.539062 15.144531 13.539062 17.121094 C 13.539062 19.101562 15.144531 20.703125 17.121094 20.703125 L 51.207031 20.703125 C 53.1875 20.703125 54.789062 19.097656 54.789062 17.121094 C 54.789062 15.144531 53.183594 13.539062 51.207031 13.539062 Z M 51.207031 13.539062 " fill-opacity="1" fill-rule="nonzero"/></g><g clip-path="url(#64e79bb82f)"><path fill="#121212" d="M 361.566406 17.121094 L 361.566406 357.984375 C 361.566406 359.960938 359.960938 361.566406 357.984375 361.566406 C 356.007812 361.566406 354.402344 359.960938 354.402344 357.984375 L 354.402344 17.121094 C 354.402344 15.144531 356.007812 13.539062 357.984375 13.539062 C 359.960938 13.539062 361.566406 15.144531 361.566406 17.121094 Z M 361.566406 17.121094 " fill-opacity="1" fill-rule="nonzero"/></g><g clip-path="url(#e72a8a3ade)"><path fill="#121212" d="M 13.539062 17.121094 L 13.539062 357.984375 C 13.539062 359.960938 15.144531 361.566406 17.121094 361.566406 C 19.097656 361.566406 20.703125 359.960938 20.703125 357.984375 L 20.703125 17.121094 C 20.703125 15.144531 19.097656 13.539062 17.121094 13.539062 C 15.144531 13.539062 13.539062 15.144531 13.539062 17.121094 Z M 13.539062 17.121094 " fill-opacity="1" fill-rule="nonzero"/></g><g clip-path="url(#eae8ac10b7)"><path fill="#121212" d="M 357.984375 361.566406 L 323.898438 361.566406 C 321.921875 361.566406 320.316406 359.964844 320.316406 357.984375 C 320.316406 356.007812 321.921875 354.40625 323.898438 354.40625 L 357.984375 354.402344 C 359.960938 354.402344 361.566406 356.007812 361.566406 357.984375 C 361.566406 359.960938 359.960938 361.566406 357.984375 361.566406 Z M 357.984375 361.566406 " fill-opacity="1" fill-rule="nonzero"/></g><g clip-path="url(#ddc526a199)"><path fill="#121212" d="M 17.121094 361.566406 L 51.207031 361.566406 C 53.1875 361.566406 54.789062 359.964844 54.789062 357.984375 C 54.789062 356.007812 53.1875 354.40625 51.207031 354.40625 L 17.121094 354.402344 C 15.144531 354.402344 13.539062 356.007812 13.539062 357.984375 C 13.539062 359.960938 15.144531 361.566406 17.121094 361.566406 Z M 17.121094 361.566406 " fill-opacity="1" fill-rule="nonzero"/></g><g fill="#121212" fill-opacity="1"><g transform="translate(33.750002, 276.368182)"><g><path d="M 12.113281 3.027344 L 50.929688 3.027344 C 85.0625 3.027344 112.316406 -25.050781 112.316406 -59.1875 L 112.316406 -196.832031 C 112.316406 -198.484375 110.941406 -199.859375 109.015625 -199.859375 C 107.363281 -199.859375 105.984375 -198.484375 105.984375 -196.832031 L 105.984375 -59.1875 C 105.984375 -28.628906 81.761719 -3.304688 50.929688 -3.304688 L 12.113281 -3.304688 C 10.1875 -3.304688 8.808594 -1.925781 8.808594 0 C 8.808594 1.652344 10.1875 3.027344 12.113281 3.027344 Z M 66.621094 -196.832031 L 66.621094 -59.1875 C 66.621094 -49.550781 59.1875 -42.667969 49.828125 -42.667969 L 14.867188 -42.667969 C 13.214844 -42.667969 11.835938 -41.292969 11.835938 -39.367188 C 11.835938 -37.714844 13.214844 -36.339844 14.867188 -36.339844 L 49.828125 -36.339844 C 62.492188 -36.339844 72.953125 -46.25 72.953125 -59.1875 L 72.953125 -196.832031 C 72.953125 -198.484375 71.574219 -199.859375 69.648438 -199.859375 C 67.996094 -199.859375 66.621094 -198.484375 66.621094 -196.832031 Z M 66.621094 -196.832031 "/></g></g></g><g fill="#121212" fill-opacity="1"><g transform="translate(188.045339, 278.499867)"><g><path d="M 140.867188 -3.335938 L 28.617188 -3.335938 L 28.617188 -198.660156 C 28.617188 -200.328125 27.230469 -201.71875 25.285156 -201.71875 C 23.617188 -201.71875 22.226562 -200.328125 22.226562 -198.660156 L 22.226562 0 C 22.226562 1.667969 23.617188 3.054688 25.285156 3.054688 L 140.867188 3.054688 C 142.8125 3.054688 144.203125 1.667969 144.203125 0 C 144.203125 -1.945312 142.8125 -3.335938 140.867188 -3.335938 Z M 61.683594 -198.660156 L 61.683594 -39.730469 C 61.683594 -38.066406 63.347656 -36.675781 65.015625 -36.675781 L 140.867188 -36.675781 C 142.8125 -36.675781 144.203125 -38.066406 144.203125 -39.730469 C 144.203125 -41.675781 142.8125 -43.066406 140.867188 -43.066406 L 68.351562 -43.066406 L 68.351562 -198.660156 C 68.351562 -200.328125 66.683594 -201.71875 65.015625 -201.71875 C 63.347656 -201.71875 61.683594 -200.328125 61.683594 -198.660156 Z M 61.683594 -198.660156 "/></g></g></g><g fill="#f05454" fill-opacity="1"><g transform="translate(145.901591, 218.290428)"><g><path d="M 6.3125 -46.890625 L 6.3125 -54.890625 L 57.9375 -54.890625 L 57.9375 -46.890625 Z M 6.3125 -24.453125 L 6.3125 -32.46875 L 57.9375 -32.46875 L 57.9375 -24.453125 Z M 6.3125 -24.453125 "/></g></g></g></svg>